<svg xmlns="http://www.w3.org/2000/svg" version="1.1" xmlns:xlink="http://www.w3.org/1999/xlink" xmlns:svgjs="http://svgjs.dev/svgjs" width="100%" height="100%" viewBox="0 0 1000 600"><rect width="1000" height="600" x="0" y="0" fill="#e2d3f4"/><g><circle r="166.66666666666666" cx="385.7582346598307" cy="407.9804280685112" fill="#013dc4" transform="matrix(0.5705378489274464,0,0,0.5705378489274464,0,67.23173743496804)"/><path d="M386.1633224217285 482.9804334349397L386.1633224217285 482.9804334349397Q368.04989654911833 482.9804334349397 355.7524428816114 477.36700752553656Q343.4549892141045 471.7246464310334 336.91563738150086 462.8704797904284Q330.34735036379715 454.0163131498235 329.91332258729693 444.23622058601796L329.91332258729693 444.23622058601796Q329.91332258729693 442.55797985021707 331.27327628699766 441.1980261505163Q332.63322998669844 439.8670076359155 334.5140170181995 439.8670076359155L334.5140170181995 439.8670076359155L345.13322994990546 439.8670076359155Q347.6216558685069 439.8670076359155 348.89480401290757 441.1112205952162Q350.13901697220825 442.35543355451694 350.54410956360846 444.0336742903179L350.54410956360846 444.0336742903179Q351.7883225229092 449.0105261275207 355.7524428816114 453.92950759452344Q359.71656324031363 458.81955387642614 367.12397062591776 462.031359422528Q374.5024428264219 465.27210015372975 386.1633224217285 465.27210015372975L386.1633224217285 465.27210015372975Q404.10313718373857 465.27210015372975 412.5232760478433 458.9063594317262Q420.972350097048 452.56955389482266 420.972350097048 441.9503409631167L420.972350097048 441.9503409631167Q420.972350097048 434.6586743179126 416.4873964065455 430.1737206274101Q412.002442716043 425.6887669369076 402.82998903933776 422.15867435470557Q393.6864705477327 418.5996465874036 379.10313725732453 414.43297993300126L379.10313725732453 414.43297993300126Q363.88322989471595 410.0637669828988 353.87165585011036 404.8554336648959Q343.8890169906048 399.647100346893 338.998970708702 391.95034111028866Q334.07998924169925 384.22464668858436 334.07998924169925 372.3612207975777L334.07998924169925 372.3612207975777Q334.07998924169925 361.10543379367135 340.12744292760266 352.2512671530664Q346.174896613506 343.3971005124614 357.6332299131125 338.1887671944585Q369.0915632127189 332.9804338764556 385.1216557581279 332.9804338764556L385.1216557581279 332.9804338764556Q398.05568349783516 332.9804338764556 407.7489705063406 336.42372090335755Q417.41332232974594 339.86700793025943 423.8948037921496 345.59617458006267Q430.3473500694532 351.3253412298659 433.67489635595507 357.86469306246954Q437.00244264245697 364.43298008017325 437.20498893815704 370.68298006177673L437.20498893815704 370.68298006177673Q437.20498893815704 372.15867450187756 436.1633222745565 373.4896930164783Q435.12165561095594 374.84964671617905 432.8357759880546 374.84964671617905L432.8357759880546 374.84964671617905L421.81147046494846 374.84964671617905Q420.33577602484763 374.84964671617905 418.7732760294467 374.01052634827863Q417.21077603404586 373.20034116547816 416.37165566614544 370.88552635747686L416.37165566614544 370.88552635747686Q415.1274427068447 362.34964675297203 406.79410939804006 356.5336745478688Q398.4607760892353 350.68876715766555 385.1216557581279 350.68876715766555L385.1216557581279 350.68876715766555Q371.5799891313203 350.68876715766555 363.1598502672156 355.8971004756684Q354.7107762180108 361.10543379367135 354.7107762180108 372.15867450187756L354.7107762180108 372.15867450187756Q354.7107762180108 379.2188596662815 358.6748965767131 383.9063596524841Q362.63901693541527 388.5938596386868 371.17489653992004 392.15288740598874Q379.7107761444248 395.68297998819077 393.4549890669325 399.647100346893L393.4549890669325 399.647100346893Q410.1216556845419 404.21885959269554 420.76980380134785 409.34038735539843Q431.38901673305384 414.43297993300126 436.4816093106567 422.0429336143055Q441.60313707335956 429.6528872956098 441.60313707335956 441.51631318661646L441.60313707335956 441.51631318661646Q441.60313707335956 454.6528872220238 434.7165630195557 463.912146454029Q427.8299889657518 473.20034087113424 415.4457297429449 478.090387153037Q403.06147052013796 482.9804334349397 386.1633224217285 482.9804334349397Z " fill="#e2d3f4" transform="matrix(0.5705378489274464,0,0,0.5705378489274464,0,67.23173743496804)"/><path d="M691.3858531942712 482.98042584462644L691.3858531942712 482.98042584462644Q673.4728435707118 482.98042584462644 661.3114552480076 477.4291097632038Q649.1500669253035 471.8491786504337 642.6830698407596 463.0929790580867Q636.1874577248682 454.3367794657397 635.758232254655 444.66489887027143L635.758232254655 444.66489887027143Q635.758232254655 443.00522705211415 637.1031387279894 441.6603205787798Q638.4480452013238 440.34402913679304 640.3080222389137 440.34402913679304L640.3080222389137 440.34402913679304L650.8097387434607 440.34402913679304Q653.270631439349 440.34402913679304 654.5296928186408 441.5744754847372Q655.760139166585 442.8049218326814 656.1607496054505 444.46459365083865L656.1607496054505 444.46459365083865Q657.3911959533948 449.38637904261543 661.3114552480076 454.2509343716971Q665.2317145426205 459.0868746694312 672.5571625675905 462.2631431490081Q679.853995561213 465.46802665993243 691.3858531942712 465.46802665993243L691.3858531942712 465.46802665993243Q709.1271726297456 465.46802665993243 717.4541467518795 459.1727197634738Q725.809735905361 452.9060278983627 725.809735905361 442.4043113938159L725.809735905361 442.4043113938159Q725.809735905361 435.1933234942359 721.3744060464924 430.75799363536737Q716.9390761876239 426.3226637764988 707.8681112504539 422.83162995209904Q698.8257613446315 419.3119810963517 684.4037855454717 415.19141658230603L684.4037855454717 415.19141658230603Q669.3522790566661 410.87054684882764 659.4514782104175 405.7198412062706Q649.5792923955165 400.56913556371353 644.7433520977825 392.9575372252681Q639.8787967687008 385.31732385547514 639.8787967687008 373.585161002984L639.8787967687008 373.585161002984Q639.8787967687008 362.4539138087913 645.8593383203364 353.6977142164443Q651.8398798719721 344.9415146240973 663.1714322855976 339.79080898154024Q674.5029846992231 334.6401033389832 690.3557120657599 334.6401033389832L690.3557120657599 334.6401033389832Q703.14663107811 334.6401033389832 712.7326665795356 338.04529206934035Q722.2900870496137 341.4504807996975 728.6998540714624 347.1162570065103Q735.0810060619636 352.782033213323 738.3717346669307 359.24903029786685Q741.6624632718976 365.7446424137583 741.8627684913305 371.92548918482674L741.8627684913305 371.92548918482674Q741.8627684913305 373.3848557835513 740.832627362819 374.7011472255381Q739.8024862343076 376.0460536988724 737.5418987578521 376.0460536988724L737.5418987578521 376.0460536988724L726.6395718144396 376.0460536988724Q725.1802052157151 376.0460536988724 723.634993522948 375.2162177897938Q722.0897818301809 374.4149969120627 721.2599459211023 372.1257944042595L721.2599459211023 372.1257944042595Q720.0294995731581 363.68436015673547 711.7883705450668 357.9327388558801Q703.5472415169754 352.1525025236772 690.3557120657599 352.1525025236772L690.3557120657599 352.1525025236772Q676.9638773951115 352.1525025236772 668.6369032729776 357.3032081662342Q660.2813141194962 362.4539138087913 660.2813141194962 373.3848557835513L660.2813141194962 373.3848557835513Q660.2813141194962 380.36692343235086 664.2015734141091 385.0025585106522Q668.121832708722 389.6381935889535 676.563266956246 393.15784244470086Q685.0047012037701 396.64887626910064 698.5968410938513 400.56913556371353L698.5968410938513 400.56913556371353Q715.0790991500337 405.0903105166247 725.6094306859281 410.15517106513914Q736.1111471904751 415.19141658230603 741.147392707642 422.71716982670887Q746.2122532561564 430.2429230711117 746.2122532561564 441.97508592360276L746.2122532561564 441.97508592360276Q746.2122532561564 454.96631015538554 739.4018757954422 464.1231201865981Q732.5914983347278 473.3085452491582 720.344264917981 478.1444855468923Q708.0970315012341 482.98042584462644 691.3858531942712 482.98042584462644ZM814.4018729573423 482.98042584462644L814.4018729573423 482.98042584462644Q798.7494508102384 482.98042584462644 788.219119274344 476.9998842929907Q777.7174027697971 471.01934274135505 772.1660866883745 460.43178114276554Q766.5861555756044 449.8156045128285 765.985239917306 436.2234646227474L765.985239917306 436.2234646227474Q765.7849346978733 432.70381576700004 765.7849346978733 427.23834477962004Q765.7849346978733 421.8014888235876 765.985239917306 418.4821451872731L765.985239917306 418.4821451872731Q766.5861555756044 404.68970007775914 772.251931782417 394.18798357321225Q777.9177079892298 383.6862670686654 788.4480395251243 377.7057255170297Q798.9497560296712 371.725183965394 814.4018729573423 371.725183965394L814.4018729573423 371.725183965394Q829.8539898850136 371.725183965394 840.3557063895604 377.7057255170297Q850.8574228941073 383.6862670686654 856.5231991009201 394.18798357321225Q862.1889753077329 404.68970007775914 862.8185059973787 418.4821451872731L862.8185059973787 418.4821451872731Q863.0188112168115 421.8014888235876 863.0188112168115 427.23834477962004Q863.0188112168115 432.70381576700004 862.8185059973787 436.2234646227474L862.8185059973787 436.2234646227474Q862.1889753077329 449.8156045128285 856.6376592263102 460.43178114276554Q851.0577281135401 471.01934274135505 840.5560116089932 476.9998842929907Q830.0542951044463 482.98042584462644 814.4018729573423 482.98042584462644ZM814.4018729573423 467.1276984780897L814.4018729573423 467.1276984780897Q827.1641769383449 467.1276984780897 834.8043903081378 458.97241454404104Q842.4159886465833 450.84574564133993 843.0455193362291 435.1933234942359L843.0455193362291 435.1933234942359Q843.2458245556619 432.10290010870176 843.2458245556619 427.3528049050102Q843.2458245556619 422.6027097013187 843.0455193362291 419.5122863157845L843.0455193362291 419.5122863157845Q842.4159886465833 403.85986416868053 834.8043903081378 395.73319526597936Q827.1641769383449 387.57791133193075 814.4018729573423 387.57791133193075L814.4018729573423 387.57791133193075Q801.6109539449923 387.57791133193075 793.8848954811567 395.73319526597936Q786.1588370173212 403.85986416868053 785.7582265784556 419.5122863157845L785.7582265784556 419.5122863157845Q785.5579213590228 422.6027097013187 785.5579213590228 427.3528049050102Q785.5579213590228 432.10290010870176 785.7582265784556 435.1933234942359L785.7582265784556 435.1933234942359Q786.1588370173212 450.84574564133993 793.8848954811567 458.97241454404104Q801.6109539449923 467.1276984780897 814.4018729573423 467.1276984780897ZM932.038266827076 482.98042584462644L932.038266827076 482.98042584462644Q917.4159858084835 482.98042584462644 906.7998091785465 477.31464963781366Q896.1836325486094 471.6488734310009 890.4320112477541 461.0326968010639Q884.6517749155511 450.4165201711268 884.2511644766856 435.5939339331015L884.2511644766856 435.5939339331015Q884.0222442259053 432.50351054756726 884.0222442259053 427.3528049050102Q884.0222442259053 422.20209926245315 884.2511644766856 419.1116758769189L884.2511644766856 419.1116758769189Q884.6517749155511 404.28908963889364 890.4320112477541 393.6729130089566Q896.1836325486094 383.0567363790195 906.7998091785465 377.39096017220675Q917.4159858084835 371.725183965394 932.038266827076 371.725183965394L932.038266827076 371.725183965394Q943.9993499303474 371.725183965394 952.5266292719141 375.015912570361Q961.0825236448283 378.306641175328 966.6624547575985 383.4573468178851Q972.2137708390211 388.60805246044214 974.9894288797324 394.5885940120778Q977.7650869204437 400.56913556371353 977.9940071712241 405.92014642570336L977.9940071712241 405.92014642570336Q978.1943123906568 407.9804286827262 976.7349457919323 409.21087503067037Q975.3041942245553 410.4699364099621 973.2439119675324 410.4699364099621L973.2439119675324 410.4699364099621L963.3431111212839 410.4699364099621Q961.2828288642612 410.4699364099621 960.2526877357496 409.52564037549325Q959.2225466072383 408.60995937237203 958.1924054787269 406.3493718959164L958.1924054787269 406.3493718959164Q954.5010664348944 396.2482658302351 948.1199144443931 392.1277013161895Q941.7101474225443 388.0071368021438 932.2385720465088 388.0071368021438L932.2385720465088 388.0071368021438Q919.8768785043719 388.0071368021438 912.1508200405364 395.61873514058925Q904.4247615767007 403.2589485103822 903.8238459184023 420.1418170054303L903.8238459184023 420.1418170054303Q903.5949256676221 427.553110124443 903.8238459184023 434.5637928045901L903.8238459184023 434.5637928045901Q904.4247615767007 451.67558155041854 912.1508200405364 459.1727197634738Q919.8768785043719 466.6984730078766 932.2385720465088 466.6984730078766L932.2385720465088 466.6984730078766Q941.7101474225443 466.6984730078766 948.1199144443931 462.57790849383105Q954.5010664348944 458.4573439797853 958.1924054787269 448.356237914104L958.1924054787269 448.356237914104Q959.2225466072383 446.0956504376484 960.2526877357496 445.065509309137Q961.2828288642612 444.0353681806256 963.3431111212839 444.0353681806256L963.3431111212839 444.0353681806256L973.2439119675324 444.0353681806256Q975.3041942245553 444.0353681806256 976.7349457919323 445.38027465395993Q978.1943123906568 446.72518112729426 977.9940071712241 448.78546338431704L977.9940071712241 448.78546338431704Q977.7650869204437 453.1063331177955 976.1340301336339 457.6275080707067Q974.4743583154767 462.17729805496543 970.8688643656868 466.8129331332668Q967.2633704158969 471.44856821156816 961.912359553907 475.05406216135805Q956.5613486919171 478.65955611114805 949.1500555729045 480.80568346221344Q941.7101474225443 482.98042584462644 932.038266827076 482.98042584462644ZM1017.1393700546577 480.92014358760366L1007.4388744278418 480.92014358760366Q1005.378592170819 480.92014358760366 1004.0336856974847 479.57523711426927Q1002.7173942554979 478.23033064093494 1002.7173942554979 476.1700483839121L1002.7173942554979 476.1700483839121L1002.7173942554979 339.3901985426747Q1002.7173942554979 337.32991628565185 1004.0336856974847 335.9850098123175Q1005.378592170819 334.6401033389832 1007.4388744278418 334.6401033389832L1007.4388744278418 334.6401033389832L1017.1393700546577 334.6401033389832Q1019.3999575311133 334.6401033389832 1020.6304038790576 335.9850098123175Q1021.8608502270016 337.32991628565185 1021.8608502270016 339.3901985426747L1021.8608502270016 339.3901985426747L1021.8608502270016 476.1700483839121Q1021.8608502270016 478.23033064093494 1020.6304038790576 479.57523711426927Q1019.3999575311133 480.92014358760366 1017.1393700546577 480.92014358760366L1017.1393700546577 480.92014358760366ZM1082.4388715897421 482.98042584462644L1082.4388715897421 482.98042584462644Q1072.137460304628 482.98042584462644 1063.696026057104 478.85986133058077Q1055.2545918095798 474.73929681653516 1050.1038861670227 467.72861413638805Q1044.9531805244658 460.71793145624093 1044.9531805244658 451.8758867698513L1044.9531805244658 451.8758867698513Q1044.9531805244658 437.6542161901243 1056.4850381575243 429.21278194260026Q1068.0168957905826 420.7713476950762 1086.559436103788 418.08153474840753L1086.559436103788 418.08153474840753L1117.2633647396974 413.7606650149291L1117.2633647396974 407.7801234632934Q1117.2633647396974 397.87932261704486 1111.5975885328846 392.3280065356222Q1105.9318123260718 386.77669045419964 1093.1408933137218 386.77669045419964L1093.1408933137218 386.77669045419964Q1084.0985434078993 386.77669045419964 1078.3183070756963 390.4680294980322Q1072.5380707434933 394.18798357321225 1070.277483267038 399.93960487406764L1070.277483267038 399.93960487406764Q1069.047036919094 403.03002825960186 1065.9566135335594 403.03002825960186L1065.9566135335594 403.03002825960186L1056.685343376957 403.03002825960186Q1054.4247559005012 403.03002825960186 1053.2801546465998 401.7137368176151Q1052.1641684240458 400.36883034428075 1052.1641684240458 398.5088533066907L1052.1641684240458 398.5088533066907Q1052.1641684240458 395.4184299211565 1054.510600994544 390.89725496824525Q1056.8856485963897 386.3474649839865 1061.836049019514 382.0265952505081Q1066.786449442638 377.7057255170297 1074.5125079064737 374.7011472255381Q1082.2385663703094 371.725183965394 1093.3698135645022 371.725183965394L1093.3698135645022 371.725183965394Q1105.7315071066391 371.725183965394 1114.172941354163 374.9300674763184Q1122.6143756016872 378.10633595589525 1127.4503158994212 383.4573468178851Q1132.2862561971556 388.8369727112224 1134.4609985795685 395.61873514058925Q1136.6357409619814 402.4291126013036 1136.6357409619814 409.43979528145064L1136.6357409619814 409.43979528145064L1136.6357409619814 476.1700483839121Q1136.6357409619814 478.23033064093494 1135.290834488647 479.57523711426927Q1133.9459280153128 480.92014358760366 1131.8856457582897 480.92014358760366L1131.8856457582897 480.92014358760366L1122.4140703822545 480.92014358760366Q1120.1534829057987 480.92014358760366 1118.8944215265071 479.57523711426927Q1117.6639751785629 478.23033064093494 1117.6639751785629 476.1700483839121L1117.6639751785629 476.1700483839121L1117.6639751785629 467.3280036975225Q1115.0027772632416 471.01934274135505 1110.452987278983 474.624836691145Q1105.9318123260718 478.23033064093494 1099.1214348653575 480.6053782427807Q1092.339672435991 482.98042584462644 1082.4388715897421 482.98042584462644ZM1086.7597413232206 467.52830891695527L1086.7597413232206 467.52830891695527Q1095.2011755707447 467.52830891695527 1102.2118582508915 463.9228149671653Q1109.2225409310388 460.3173210173754 1113.2286453196944 452.70572267893Q1117.2633647396974 445.065509309137 1117.2633647396974 433.5336516760787L1117.2633647396974 433.5336516760787L1117.2633647396974 427.75341534387576L1093.3698135645022 431.2730641996231Q1078.718917514562 433.3333464566459 1071.3076243955493 438.16928675438004Q1063.8963312765368 443.00522705211415 1063.8963312765368 450.4165201711268L1063.8963312765368 450.4165201711268Q1063.8963312765368 456.19675650332977 1067.301520006894 460.0025556725525Q1070.7067087372511 463.80835484177516 1075.9432594738507 465.6683318793652Q1081.208425241798 467.52830891695527 1086.7597413232206 467.52830891695527ZM1209.5468408355114 482.98042584462644L1209.5468408355114 482.98042584462644Q1194.9245598169186 482.98042584462644 1184.3083831869817 477.31464963781366Q1173.7208215883923 471.6488734310009 1167.9405852561893 461.0326968010639Q1162.1603489239865 450.4165201711268 1161.7597384851208 435.5939339331015L1161.7597384851208 435.5939339331015Q1161.559433265688 432.50351054756726 1161.559433265688 427.3528049050102Q1161.559433265688 422.20209926245315 1161.7597384851208 419.1116758769189L1161.7597384851208 419.1116758769189Q1162.1603489239865 404.28908963889364 1167.9405852561893 393.6729130089566Q1173.7208215883923 383.0567363790195 1184.3083831869817 377.39096017220675Q1194.9245598169186 371.725183965394 1209.5468408355114 371.725183965394L1209.5468408355114 371.725183965394Q1221.5079239387828 371.725183965394 1230.0638183116969 375.015912570361Q1238.6197126846112 378.306641175328 1244.1710287660337 383.4573468178851Q1249.7223448474563 388.60805246044214 1252.5266179195153 394.5885940120778Q1255.3022759602266 400.56913556371353 1255.5025811796593 405.92014642570336L1255.5025811796593 405.92014642570336Q1255.702886399092 407.9804286827262 1254.2721348317148 409.21087503067037Q1252.8127682329907 410.4699364099621 1250.7524859759676 410.4699364099621L1250.7524859759676 410.4699364099621L1240.8803001610668 410.4699364099621Q1238.8200179040439 410.4699364099621 1237.7898767755325 409.52564037549325Q1236.759735647021 408.60995937237203 1235.7295945185097 406.3493718959164L1235.7295945185097 406.3493718959164Q1232.0096404433295 396.2482658302351 1225.6284884528284 392.1277013161895Q1219.247336462327 388.0071368021438 1209.7757610862918 388.0071368021438L1209.7757610862918 388.0071368021438Q1197.4140675441547 388.0071368021438 1189.6880090803193 395.61873514058925Q1181.9619506164836 403.2589485103822 1181.3324199268377 420.1418170054303L1181.3324199268377 420.1418170054303Q1181.132114707405 427.553110124443 1181.3324199268377 434.5637928045901L1181.3324199268377 434.5637928045901Q1181.9619506164836 451.67558155041854 1189.6880090803193 459.1727197634738Q1197.4140675441547 466.6984730078766 1209.7757610862918 466.6984730078766L1209.7757610862918 466.6984730078766Q1219.247336462327 466.6984730078766 1225.6284884528284 462.57790849383105Q1232.0096404433295 458.4573439797853 1235.7295945185097 448.356237914104L1235.7295945185097 448.356237914104Q1236.759735647021 446.0956504376484 1237.7898767755325 445.065509309137Q1238.8200179040439 444.0353681806256 1240.8803001610668 444.0353681806256L1240.8803001610668 444.0353681806256L1250.7524859759676 444.0353681806256Q1252.8127682329907 444.0353681806256 1254.2721348317148 445.38027465395993Q1255.702886399092 446.72518112729426 1255.5025811796593 448.78546338431704L1255.5025811796593 448.78546338431704Q1255.3022759602266 453.1063331177955 1253.6426041420693 457.6275080707067Q1252.0115473552594 462.17729805496543 1248.4060534054695 466.8129331332668Q1244.8005594556796 471.44856821156816 1239.4209335623423 475.05406216135805Q1234.0699227003524 478.65955611114805 1226.65862958134 480.80568346221344Q1219.247336462327 482.98042584462644 1209.5468408355114 482.98042584462644ZM1319.1710259279341 482.98042584462644L1319.1710259279341 482.98042584462644Q1307.8394735143086 482.98042584462644 1299.598344486217 478.974321455971Q1291.357215458126 474.93960203596794 1286.0920496901788 468.043379481211Q1280.855498953579 461.14715692645404 1278.2801461323004 452.2764972087169Q1275.7047933110218 443.43445252232726 1275.2755678408087 433.5336516760787L1275.2755678408087 433.5336516760787Q1275.075262621376 430.2429230711117 1275.075262621376 427.3528049050102Q1275.075262621376 424.46268673890876 1275.2755678408087 421.17195813394176L1275.2755678408087 421.17195813394176Q1275.7047933110218 411.5000775384735 1278.2801461323004 402.6294178207363Q1280.855498953579 393.7587581029992 1286.0920496901788 386.77669045419964Q1291.357215458126 379.7660077740525 1299.598344486217 375.73128835404947Q1307.8394735143086 371.725183965394 1319.1710259279341 371.725183965394L1319.1710259279341 371.725183965394Q1331.3324142506383 371.725183965394 1339.344623027949 376.0460536988724Q1347.3854468366078 380.36692343235086 1352.5361524791645 386.77669045419964L1352.5361524791645 386.77669045419964L1352.5361524791645 339.3901985426747Q1352.5361524791645 337.32991628565185 1353.881058952499 335.9850098123175Q1355.2259654258335 334.6401033389832 1357.2862476828561 334.6401033389832L1357.2862476828561 334.6401033389832L1367.1584334977572 334.6401033389832Q1369.2187157547799 334.6401033389832 1370.5636222281144 335.9850098123175Q1371.9085287014489 337.32991628565185 1371.9085287014489 339.3901985426747L1371.9085287014489 339.3901985426747L1371.9085287014489 476.1700483839121Q1371.9085287014489 478.23033064093494 1370.5636222281144 479.57523711426927Q1369.2187157547799 480.92014358760366 1367.1584334977572 480.92014358760366L1367.1584334977572 480.92014358760366L1357.8871633411547 480.92014358760366Q1355.626575864699 480.92014358760366 1354.3961295167549 479.57523711426927Q1353.1656831688103 478.23033064093494 1353.1656831688103 476.1700483839121L1353.1656831688103 476.1700483839121L1353.1656831688103 467.52830891695527Q1348.0149775262537 474.1097661268893 1339.7738484981621 478.5450959857578Q1331.532719470071 482.98042584462644 1319.1710259279341 482.98042584462644ZM1323.4918956614126 466.29786256901104L1323.4918956614126 466.29786256901104Q1333.7933069465264 466.29786256901104 1339.9741537175948 461.5477673653196Q1346.1550004886633 456.8262871929756 1349.2454238741977 449.50083916800554Q1352.3358472597317 442.17539114303554 1352.5361524791645 434.5637928045901L1352.5361524791645 434.5637928045901Q1352.7364576985976 431.2730641996231 1352.7364576985976 426.6374291213217Q1352.7364576985976 422.00179404302037 1352.5361524791645 418.71106543805337L1352.5361524791645 418.71106543805337Q1352.3358472597317 411.5000775384735 1349.1309637488073 404.48939485832636Q1345.9546952692306 397.4787121781793 1339.6593883727721 392.9575372252681Q1333.392696507661 388.40774724100936 1323.4918956614126 388.40774724100936L1323.4918956614126 388.40774724100936Q1312.9901791568657 388.40774724100936 1306.8093323857968 393.0433823193107Q1300.6284856147288 397.67901739761203 1297.9386726680598 405.20477064201486Q1295.277474752739 412.7305238864177 1294.8482492825258 421.37226335337454L1294.8482492825258 421.37226335337454Q1294.647944063093 427.3528049050102 1294.8482492825258 433.3333464566459L1294.8482492825258 433.3333464566459Q1295.277474752739 441.97508592360276 1297.9386726680598 449.50083916800554Q1300.6284856147288 457.0265924124084 1306.8093323857968 461.6622274907097Q1312.9901791568657 466.29786256901104 1323.4918956614126 466.29786256901104ZM1417.2347383559506 480.92014358760366L1407.3339375097023 480.92014358760366Q1405.2736552526796 480.92014358760366 1403.9573638106929 479.57523711426927Q1402.6124573373584 478.23033064093494 1402.6124573373584 476.1700483839121L1402.6124573373584 476.1700483839121L1402.6124573373584 378.5355614261083Q1402.6124573373584 376.4752791690855 1403.9573638106929 375.13037269575113Q1405.2736552526796 373.7854662224168 1407.3339375097023 373.7854662224168L1407.3339375097023 373.7854662224168L1417.2347383559506 373.7854662224168Q1419.2950206129738 373.7854662224168 1420.6399270863078 375.13037269575113Q1421.9848335596423 376.4752791690855 1421.9848335596423 378.5355614261083L1421.9848335596423 378.5355614261083L1421.9848335596423 476.1700483839121Q1421.9848335596423 478.23033064093494 1420.6399270863078 479.57523711426927Q1419.2950206129738 480.92014358760366 1417.2347383559506 480.92014358760366L1417.2347383559506 480.92014358760366ZM1418.6654899233279 353.8121743418344L1405.7028807228924 353.8121743418344Q1403.6425984658697 353.8121743418344 1402.2976919925352 352.46726786850013Q1400.9527855192011 351.12236139516574 1400.9527855192011 349.06207913814296L1400.9527855192011 349.06207913814296L1400.9527855192011 337.9308319439502Q1400.9527855192011 335.87054968692735 1402.2976919925352 334.4397981195504Q1403.6425984658697 332.9804315208259 1405.7028807228924 332.9804315208259L1405.7028807228924 332.9804315208259L1418.6654899233279 332.9804315208259Q1420.7257721803505 332.9804315208259 1422.185138779075 334.4397981195504Q1423.6158903464523 335.87054968692735 1423.6158903464523 337.9308319439502L1423.6158903464523 337.9308319439502L1423.6158903464523 349.06207913814296Q1423.6158903464523 351.12236139516574 1422.185138779075 352.46726786850013Q1420.7257721803505 353.8121743418344 1418.6654899233279 353.8121743418344L1418.6654899233279 353.8121743418344ZM1489.5449225711825 482.98042584462644L1489.5449225711825 482.98042584462644Q1478.0130649381242 482.98042584462644 1469.771935910033 480.090307678525Q1461.5308068819415 477.20018951242355 1456.3801012393844 473.0796249983779Q1451.2293955968273 468.9590604843322 1448.6540427755488 464.83849597028654Q1446.0786899542702 460.71793145624093 1445.8783847348375 458.25703876035254L1445.8783847348375 458.25703876035254Q1445.6780795154048 455.996451283897 1447.3091363022147 454.76600493595276Q1448.968808120372 453.50694355666104 1450.5998649071814 453.50694355666104L1450.5998649071814 453.50694355666104L1459.8711350637843 453.50694355666104Q1460.9012761922957 453.50694355666104 1461.6452670073315 453.821708901484Q1462.3606427910202 454.13647424630693 1463.5910891389642 455.5672258136839L1463.5910891389642 455.5672258136839Q1466.2809020856332 458.4573439797853 1469.5716306906 461.34746214588677Q1472.862359295567 464.23758031198827 1477.698299593301 466.0975573495783Q1482.5342398910354 467.9289193558208 1489.7452277906152 467.9289193558208L1489.7452277906152 467.9289193558208Q1500.2755593265094 467.9289193558208 1507.0573217558765 463.9228149671653Q1513.8676992165908 459.9167105785098 1513.8676992165908 452.0761919892841L1513.8676992165908 452.0761919892841Q1513.8676992165908 446.92548634672704 1511.0920411758796 443.8350629611928Q1508.2877681038206 440.74463957565854 1501.1912403296308 438.2837468797702Q1494.094712555441 435.7942391525343 1481.7330190133046 433.13304123721315L1481.7330190133046 433.13304123721315Q1469.3713254711672 430.2429230711117 1462.1603375715874 426.00789843167587Q1454.9493496720077 421.8014888235876 1451.8589262864732 415.90679236599453Q1448.7685029009388 410.040710939749 1448.7685029009388 402.6294178207363L1448.7685029009388 402.6294178207363Q1448.7685029009388 395.0178194822909 1453.2896778538504 387.89267667675364Q1457.8108528067617 380.7961489025639 1466.5670523991087 376.2463589183052Q1475.3232519914557 371.725183965394 1488.5147814426712 371.725183965394L1488.5147814426712 371.725183965394Q1499.245418197998 371.725183965394 1506.8570165364438 374.4149969120627Q1514.468614874889 377.0761948273838 1519.4190152980134 381.11091424738686Q1524.3694157211378 385.11701863604236 1526.830308417026 389.0372779306552Q1529.3198161442622 392.9575372252681 1529.520121363695 395.61873514058925L1529.520121363695 395.61873514058925Q1529.7204265831276 397.67901739761203 1528.2896750157504 399.0239238709464Q1526.830308417026 400.36883034428075 1524.9989464107832 400.36883034428075L1524.9989464107832 400.36883034428075L1516.328591912479 400.36883034428075Q1514.8978403451022 400.36883034428075 1513.9535443106336 399.73929965463486Q1513.0378633075122 399.13838399633653 1512.2080273984336 398.3085480872579L1512.2080273984336 398.3085480872579Q1510.1477451414105 395.61873514058925 1507.3720871006992 392.9575372252681Q1504.596429059988 390.2677242785994 1500.1610992011194 388.5222073663995Q1495.725769342251 386.77669045419964 1488.5147814426712 386.77669045419964L1488.5147814426712 386.77669045419964Q1478.213370157557 386.77669045419964 1473.0626645149998 391.097560187678Q1467.9119588724427 395.4184299211565 1467.9119588724427 401.9998871310905L1467.9119588724427 401.9998871310905Q1467.9119588724427 405.92014642570336 1470.1725463488985 409.0105698112376Q1472.4617488567017 412.1009931967718 1478.8429008472028 414.59050092400776Q1485.224052837704 417.0513936198961 1497.7860515992736 419.9415117859976L1497.7860515992736 419.9415117859976Q1511.3781914893545 422.6027097013187 1519.2187100785807 427.1524996855774Q1527.0592286678063 431.67367463848865 1530.3499572727735 437.6542161901243Q1533.6406858777402 443.63475774176004 1533.6406858777402 451.4466612996382L1533.6406858777402 451.4466612996382Q1533.6406858777402 460.1170157979426 1528.6902854546163 467.3280036975225Q1523.7398850314914 474.5389915971024 1513.8676992165908 478.74540120519066Q1503.966898370342 482.98042584462644 1489.5449225711825 482.98042584462644Z " fill="#013dc4" transform="matrix(0.5705378489274464,0,0,0.5705378489274464,0,67.23173743496804)"/></g></svg>